<?xml version="1.0" standalone="no"?>
<svg viewBox="0 0 200 200" xmlns="http://www.w3.org/2000/svg">
  <path fill="#FF0066" d="M33.6,-63C42.8,-52.8,49.2,-42.5,53.9,-31.9C58.5,-21.4,61.3,-10.7,63.6,1.3C65.9,13.4,67.8,26.8,64.6,39.9C61.5,52.9,53.4,65.6,41.8,67.3C30.2,69,15.1,59.7,0.2,59.4C-14.7,59.1,-29.5,67.8,-40.4,65.7C-51.3,63.7,-58.5,50.8,-62.1,38C-65.6,25.3,-65.6,12.6,-68.6,-1.7C-71.5,-16,-77.4,-32,-74.1,-45.3C-70.8,-58.5,-58.3,-69,-44.5,-76.6C-30.6,-84.2,-15.3,-88.9,-1.6,-86.2C12.1,-83.4,24.3,-73.3,33.6,-63Z" transform="translate(100 100)" />
</svg>
